<?xml version="1.0" encoding="utf-8"?>
<!-- Generator: Adobe Illustrator 21.0.0, SVG Export Plug-In . SVG Version: 6.00 Build 0)  -->
<svg version="1.1" id="Layer_1" xmlns="http://www.w3.org/2000/svg" xmlns:xlink="http://www.w3.org/1999/xlink" x="0px" y="0px"
	 viewBox="0 0 64 64" style="enable-background:new 0 0 64 64;" xml:space="preserve">
<style type="text/css">
	.st0{fill:url(#SVGID_1_);}
	.st1{fill:#FFFFFF;}
</style>
<linearGradient id="SVGID_1_" gradientUnits="userSpaceOnUse" x1="27.5002" y1="998.648" x2="37.1532" y2="928.611" gradientTransform="matrix(1 0 0 1 0 -934)">
	<stop  offset="0" style="stop-color:#FEAA53"/>
	<stop  offset="0.612" style="stop-color:#FFCD49"/>
	<stop  offset="1" style="stop-color:#FFDE44"/>
</linearGradient>
<path class="st0" d="M18,8h28c5.5,0,10,4.5,10,10v28c0,5.5-4.5,10-10,10H18c-5.5,0-10-4.5-10-10V18C8,12.5,12.5,8,18,8z"/>
<path class="st1" d="M21.1,18c-2.9,0-5.5,1-7.4,2.6C13.3,21,13,21.5,13,22.1v9.6v10.5c0,0.8,1,1.3,1.7,0.8c1.7-1.3,4-2.1,6.4-2.1
	c3.4,0,6.3,1.5,8.2,3.8c0.3,0.4,1,0.2,1-0.3V30.3v-3.6c0-4.7-4-8.7-9-8.7C21.2,18,21.1,18,21.1,18z"/>
<path class="st1" d="M42.9,18c2.9,0,5.5,1,7.4,2.6c0.4,0.4,0.7,0.9,0.7,1.5v9.6v10.5c0,0.8-1,1.3-1.7,0.8c-1.7-1.3-4-2.1-6.4-2.1
	c-3.4,0-6.3,1.5-8.2,3.8c-0.3,0.4-1,0.2-1-0.3V30.3v-3.6c0-4.7,4-8.7,9-8.7C42.8,18,42.9,18,42.9,18z"/>
</svg>
