<?xml version="1.0" encoding="utf-8"?>
<!-- Generator: Adobe Illustrator 21.0.0, SVG Export Plug-In . SVG Version: 6.00 Build 0)  -->
<svg version="1.1" id="Layer_1" xmlns="http://www.w3.org/2000/svg" xmlns:xlink="http://www.w3.org/1999/xlink" x="0px" y="0px"
	 viewBox="0 0 64 64" style="enable-background:new 0 0 64 64;" xml:space="preserve">
<style type="text/css">
	.st0{fill:url(#SVGID_1_);}
	.st1{fill:#FFFFFF;}
</style>
<linearGradient id="SVGID_1_" gradientUnits="userSpaceOnUse" x1="32" y1="225" x2="32" y2="175" gradientTransform="matrix(1 0 0 1 0 -168)">
	<stop  offset="0" style="stop-color:#9934FF"/>
	<stop  offset="1" style="stop-color:#C975FF"/>
</linearGradient>
<path class="st0" d="M57,32c0,13.8-11.2,25-25,25S7,45.8,7,32S18.2,7,32,7S57,18.2,57,32z"/>
<path class="st1" d="M42.7,22.7L27.5,37.9l-5.2-5.2c-1-1-2.6-1-3.5,0l0,0c-1,1-1,2.6,0,3.5l7,7c1,1,2.6,1,3.5,0l17-17
	c1-1,1-2.6,0-3.5l0,0C45.3,21.8,43.7,21.8,42.7,22.7z"/>
</svg>
