<?xml version="1.0" encoding="utf-8"?>
<!-- Generator: Adobe Illustrator 21.0.0, SVG Export Plug-In . SVG Version: 6.00 Build 0)  -->
<svg version="1.1" id="Layer_1" xmlns="http://www.w3.org/2000/svg" xmlns:xlink="http://www.w3.org/1999/xlink" x="0px" y="0px"
	 viewBox="0 0 64 64" style="enable-background:new 0 0 64 64;" xml:space="preserve">
<style type="text/css">
	.st0{fill:#717171;}
	.st1{fill:url(#SVGID_1_);}
	.st2{fill:url(#SVGID_2_);}
	.st3{fill:url(#SVGID_3_);}
	.st4{fill:url(#SVGID_4_);}
	.st5{fill:url(#SVGID_5_);}
</style>
<g>
	<path class="st0" d="M41.5,15.5c-0.8,0-1.5-0.7-1.5-1.5V9.5C40,8.1,38.7,7,37,7H27c-1.7,0-3,1.1-3,2.5V14c0,0.8-0.7,1.5-1.5,1.5
		S21,14.8,21,14V9.5c0-3,2.7-5.5,6-5.5h10c3.3,0,6,2.5,6,5.5V14C43,14.8,42.3,15.5,41.5,15.5z"/>
</g>
<linearGradient id="SVGID_1_" gradientUnits="userSpaceOnUse" x1="32" y1="38.497" x2="32" y2="0.497" gradientTransform="matrix(1 0 0 -1 0 66)">
	<stop  offset="0" style="stop-color:#A4A4A4"/>
	<stop  offset="0.63" style="stop-color:#7F7F7F"/>
	<stop  offset="1" style="stop-color:#6F6F6F"/>
	<stop  offset="1" style="stop-color:#6F6F6F"/>
</linearGradient>
<path class="st1" d="M43,60H21c-4.4,0-8-3.6-8-8V22h38v30C51,56.4,47.4,60,43,60z"/>
<linearGradient id="SVGID_2_" gradientUnits="userSpaceOnUse" x1="32" y1="61.459" x2="32" y2="33.109" gradientTransform="matrix(1 0 0 -1 0 66)">
	<stop  offset="0" style="stop-color:#A4A4A4"/>
	<stop  offset="0.63" style="stop-color:#7F7F7F"/>
	<stop  offset="1" style="stop-color:#6F6F6F"/>
</linearGradient>
<path class="st2" d="M51,22H13c-1.7,0-3-1.3-3-3v-2c0-3.3,2.7-6,6-6h32c3.3,0,6,2.7,6,6v2C54,20.7,52.7,22,51,22z"/>
<g>
	
		<linearGradient id="SVGID_3_" gradientUnits="userSpaceOnUse" x1="32" y1="44" x2="32" y2="16" gradientTransform="matrix(1 0 0 -1 0 66)">
		<stop  offset="0" style="stop-color:#D8D8D8"/>
		<stop  offset="0.759" style="stop-color:#C9C9C9"/>
		<stop  offset="1" style="stop-color:#C3C3C3"/>
	</linearGradient>
	<path class="st3" d="M30,22h4v26c0,1.1-0.9,2-2,2l0,0c-1.1,0-2-0.9-2-2V22z"/>
	
		<linearGradient id="SVGID_4_" gradientUnits="userSpaceOnUse" x1="42" y1="44" x2="42" y2="16" gradientTransform="matrix(1 0 0 -1 0 66)">
		<stop  offset="0" style="stop-color:#D8D8D8"/>
		<stop  offset="0.759" style="stop-color:#C9C9C9"/>
		<stop  offset="1" style="stop-color:#C3C3C3"/>
	</linearGradient>
	<path class="st4" d="M40,22h4v26c0,1.1-0.9,2-2,2l0,0c-1.1,0-2-0.9-2-2V22z"/>
	<g>
		
			<linearGradient id="SVGID_5_" gradientUnits="userSpaceOnUse" x1="22" y1="44" x2="22" y2="16" gradientTransform="matrix(1 0 0 -1 0 66)">
			<stop  offset="0" style="stop-color:#D8D8D8"/>
			<stop  offset="0.759" style="stop-color:#C9C9C9"/>
			<stop  offset="1" style="stop-color:#C3C3C3"/>
		</linearGradient>
		<path class="st5" d="M20,22h4v26c0,1.1-0.9,2-2,2l0,0c-1.1,0-2-0.9-2-2V22z"/>
	</g>
</g>
</svg>
