<?xml version="1.0" encoding="utf-8"?>
<!-- Generator: Adobe Illustrator 21.0.0, SVG Export Plug-In . SVG Version: 6.00 Build 0)  -->
<svg version="1.1" id="Layer_1" xmlns="http://www.w3.org/2000/svg" xmlns:xlink="http://www.w3.org/1999/xlink" x="0px" y="0px"
	 viewBox="0 0 64 64" style="enable-background:new 0 0 64 64;" xml:space="preserve">
<style type="text/css">
	.st0{fill:url(#SVGID_1_);}
	.st1{fill:#FFFFFF;}
</style>
<linearGradient id="SVGID_1_" gradientUnits="userSpaceOnUse" x1="32.0083" y1="940.0214" x2="32.0083" y2="999.4444" gradientTransform="matrix(1 0 0 1 0 -934)">
	<stop  offset="0" style="stop-color:#00D772"/>
	<stop  offset="0.996" style="stop-color:#00B26E"/>
	<stop  offset="1" style="stop-color:#00B26E"/>
</linearGradient>
<path class="st0" d="M30,6.1C17.8,7,7.9,17,7.1,29.1c-0.6,8.8,3.2,16.6,9.5,21.6c0.2,0.2,0.4,0.5,0.4,0.8v5.1c0,1.5,1.6,2.5,3,1.8
	l5.5-3c0.2-0.1,0.5-0.1,0.7-0.1c2.5,0.6,5.1,0.8,7.8,0.6C46.1,55,56,45.1,56.9,33C58.1,17.6,45.4,4.9,30,6.1z"/>
<path class="st1" d="M25.9,20.4c-0.5-1.1-1-1.1-1.4-1.1s-0.8,0-1.2,0s-1.1,0.2-1.7,0.8s-2.3,2.2-2.3,5.3s2.3,6.2,2.6,6.6
	c0.3,0.4,4.4,7.1,10.9,9.6c5.4,2.1,6.5,1.7,7.7,1.6c1.2-0.1,3.8-1.5,4.3-3s0.5-2.8,0.4-3c-0.2-0.3-0.6-0.4-1.2-0.7
	c-0.3-0.1-1.9-0.9-3.7-1.8c-0.8-0.4-1.8-0.2-2.4,0.5c-0.2,0.3-0.7,0.8-1.2,1.5c-0.6,0.7-1.6,0.9-2.4,0.5c-1.3-0.6-3.1-1.6-4.6-2.9
	c-1-0.9-2.3-2.6-3-3.7c-0.5-0.8-0.5-1.8,0.2-2.5c0.3-0.3,0.6-0.6,0.8-0.9c0.5-0.6,0.6-1.4,0.3-2.1C27.3,23.5,26.3,21.3,25.9,20.4z"
	/>
</svg>
